<svg width="200" height="164" viewBox="0 0 200 164" fill="none" xmlns="http://www.w3.org/2000/svg">
<path d="M86.3313 57.3659V55.2517H104.206V57.3659H96.447V76.71H94.0859V57.3659H86.3313Z" fill="white"/>
<path d="M106.229 76.71V55.2517H115.426C117.51 55.2517 119.194 55.8188 120.48 56.9531C121.769 58.0874 122.413 59.5746 122.413 61.413C122.413 62.8231 121.999 64.0393 121.171 65.0627C120.345 66.0841 119.236 66.7891 117.845 67.1769L122.66 76.71H120.052L115.457 67.4816H108.59V76.71H106.229ZM115.272 57.3659H108.59V65.4909H115.272C116.701 65.4909 117.855 65.1186 118.733 64.3721C119.612 63.6265 120.052 62.6398 120.052 61.413C120.052 60.1861 119.612 59.2052 118.733 58.4693C117.855 57.7343 116.701 57.3659 115.272 57.3659Z" fill="white"/>
<path d="M125.144 76.71V55.2517H140.503V57.335H127.506V64.8466H135.997V66.8991H127.506V74.6267H140.627V76.71H125.144Z" fill="white"/>
<path d="M143.171 55.2517H145.532L158.437 72.663V55.2517H160.675V76.71H158.592L145.409 58.8358V76.71H143.171V55.2517Z" fill="white"/>
<path d="M164.539 76.71V55.2517H171.619C173.233 55.2517 174.736 55.5237 176.125 56.0658C177.516 56.6059 178.712 57.3466 179.713 58.288C180.713 59.2274 181.493 60.3559 182.055 61.6753C182.618 62.9928 182.9 64.428 182.9 65.9809C182.9 67.5347 182.618 68.9708 182.055 70.2903C181.493 71.6078 180.718 72.7363 179.728 73.6776C178.738 74.6171 177.547 75.3578 176.156 75.8999C174.767 76.44 173.254 76.71 171.619 76.71H164.539ZM171.742 57.3968H166.9V74.565H171.742C172.969 74.565 174.123 74.3451 175.207 73.9053C176.289 73.4654 177.219 72.8626 177.996 72.0958C178.772 71.33 179.386 70.4205 179.836 69.3682C180.286 68.3169 180.511 67.1875 180.511 65.9809C180.511 64.7752 180.286 63.6458 179.836 62.5935C179.386 61.5422 178.772 60.6327 177.996 59.8659C177.219 59.1001 176.289 58.4963 175.207 58.0565C174.123 57.6167 172.969 57.3968 171.742 57.3968Z" fill="white"/>
<mask id="mask0_8_248" style="mask-type:luminance" maskUnits="userSpaceOnUse" x="8" y="11" width="144" height="72">
<path d="M8.74902 11.5298H151.269V82.6988H8.74902V11.5298Z" fill="white"/>
</mask>
<g mask="url(#mask0_8_248)">
<path d="M151.269 81.9233V82.1818L18.9429 82.6583H18.342V82.0564L18.1587 41.7565L11.1699 41.7893L8.74902 41.7979L10.678 40.3097L47.2386 12.0468L47.8569 11.5703L48.4915 12.0468L85.3028 39.9673L88.2243 42.1828C86.2712 42.1905 81.0281 42.2156 78.0642 42.2242L78.0806 51.3195H75.4919L75.5092 40.9453V39.6577L76.7862 39.6664L80.8941 39.6828L47.8569 14.1706L13.6082 40.1515L18.9429 40.1766H19.7367V40.9617L19.5447 81.4546L151.269 81.9233Z" fill="white"/>
</g>
<path d="M28.8214 82.263L180.468 82.0874" stroke="white" stroke-width="2.95614"/>
<path d="M24.4009 92.1732L22.2327 86.8028H22.2018C22.2221 87.1327 22.2327 87.4693 22.2327 87.8136V92.1732H21.843V86.3591H22.4719L24.5321 91.4749H24.5552L26.6154 86.3591H27.2288V92.1732H26.8199V87.7673C26.8199 87.4587 26.8353 87.1413 26.8662 86.8144H26.8353L24.6594 92.1732H24.4009Z" fill="white"/>
<path d="M38.7502 89.2566C38.7502 90.1806 38.5187 90.9108 38.0558 91.448C37.5947 91.9862 36.9601 92.2543 36.1499 92.2543C35.3417 92.2543 34.707 91.9862 34.2441 91.448C33.783 90.9108 33.5535 90.1777 33.5535 89.2489C33.5535 88.3259 33.7859 87.5977 34.2518 87.0653C34.7167 86.5329 35.3523 86.2667 36.1576 86.2667C36.9697 86.2667 37.6054 86.5348 38.0635 87.0691C38.5207 87.6044 38.7502 88.3336 38.7502 89.2566ZM33.9933 89.2566C33.9933 90.09 34.1785 90.7343 34.5488 91.1895C34.9211 91.6448 35.4555 91.8724 36.1499 91.8724C36.8492 91.8724 37.3845 91.6476 37.7549 91.1972C38.1252 90.7449 38.3104 90.0977 38.3104 89.2566C38.3104 88.4214 38.1252 87.779 37.7549 87.3315C37.3845 86.884 36.8521 86.6602 36.1576 86.6602C35.4651 86.6602 34.9317 86.8868 34.5566 87.3392C34.1804 87.7896 33.9933 88.4291 33.9933 89.2566ZM35.768 85.8307C35.9609 85.6224 36.1518 85.3967 36.3428 85.1517C36.5328 84.9048 36.663 84.7186 36.7325 84.5923H37.2919V84.6579C37.1964 84.7968 37.0334 84.981 36.8019 85.2096C36.5724 85.4362 36.3206 85.6648 36.0458 85.8963H35.768V85.8307Z" fill="white"/>
<path d="M48.5155 86.3591H48.9553L46.7832 92.1732H46.4244L44.2562 86.3591H44.6883L46.1544 90.3175C46.3752 90.9145 46.5247 91.362 46.6019 91.6601C46.6559 91.4623 46.761 91.1537 46.9183 90.7341L48.5155 86.3591Z" fill="white"/>
<path d="M57.9499 92.1732H54.7709V86.3591H57.9499V86.7334H55.1798V88.9324H57.7956V89.3067H55.1798V91.7989H57.9499V92.1732Z" fill="white"/>
<path d="M64.257 92.1732V86.3591H64.6659V92.1732H64.257Z" fill="white"/>
<path d="M74.5116 90.6726C74.5116 91.1587 74.3322 91.5445 73.9754 91.83C73.6204 92.1135 73.1468 92.2544 72.5556 92.2544C71.8457 92.2544 71.2998 92.1753 70.9198 92.019V91.6139C71.3384 91.7914 71.8737 91.8801 72.5247 91.8801C73.0002 91.8801 73.3783 91.7711 73.659 91.5522C73.9387 91.3342 74.0795 91.0468 74.0795 90.6919C74.0795 90.471 74.0332 90.2887 73.9406 90.144C73.848 90.0003 73.6956 89.8691 73.4854 89.7505C73.2771 89.6299 72.9694 89.4997 72.5633 89.3608C71.9692 89.1583 71.5583 88.9384 71.3326 88.7011C71.1059 88.4619 70.9931 88.1456 70.9931 87.752C70.9931 87.318 71.1629 86.9631 71.5024 86.6872C71.8438 86.4123 72.2826 86.2744 72.8179 86.2744C73.3629 86.2744 73.876 86.3786 74.3573 86.5869L74.2107 86.9341C73.7265 86.7335 73.2655 86.6332 72.8257 86.6332C72.3955 86.6332 72.0541 86.7335 71.7994 86.9341C71.5448 87.1328 71.4175 87.4029 71.4175 87.7443C71.4175 87.9584 71.4561 88.134 71.5332 88.2729C71.6123 88.4098 71.7416 88.5333 71.919 88.6432C72.0965 88.7542 72.4013 88.8863 72.8334 89.0406C73.2857 89.1978 73.6262 89.3493 73.8558 89.4959C74.0843 89.6425 74.2502 89.8103 74.3534 89.9974C74.4586 90.1826 74.5116 90.4083 74.5116 90.6726Z" fill="white"/>
<path d="M91.3398 88.0297C91.3398 88.591 91.1488 89.0212 90.7688 89.3221C90.3878 89.6211 89.8467 89.7696 89.1446 89.7696H88.2495V92.1732H87.8406V86.3591H89.2642C90.6473 86.3591 91.3398 86.9166 91.3398 88.0297ZM88.2495 89.4224H89.0481C89.7011 89.4224 90.1728 89.3144 90.464 89.0983C90.7572 88.8823 90.9038 88.5312 90.9038 88.0451C90.9038 87.5976 90.7659 87.2658 90.491 87.0497C90.2152 86.8337 89.7889 86.7256 89.2102 86.7256H88.2495V89.4224Z" fill="white"/>
<path d="M97.5972 92.1732V86.3591H98.0061V91.7912H100.776V92.1732H97.5972Z" fill="white"/>
<path d="M109.57 90.1207H107.209L106.395 92.1731H105.947L108.285 86.3359H108.544L110.836 92.1731H110.376L109.57 90.1207ZM107.356 89.7541H109.435L108.644 87.6592C108.577 87.4953 108.498 87.2677 108.405 86.9764C108.333 87.231 108.254 87.4615 108.17 87.667L107.356 89.7541Z" fill="white"/>
<path d="M120.877 92.1732H120.468L117.023 87.0111H116.992C117.023 87.6265 117.039 88.0904 117.039 88.4039V92.1732H116.649V86.3591H117.058L120.495 91.5135H120.519C120.495 91.0351 120.484 90.5817 120.484 90.1516V86.3591H120.877V92.1732Z" fill="white"/>
<path d="M130.694 92.1732H127.515V86.3591H130.694V86.7334H127.924V88.9324H130.54V89.3067H127.924V91.7989H130.694V92.1732Z" fill="white"/>
<path d="M136.048 93.6392C135.804 93.6392 135.604 93.6045 135.446 93.5351V93.184C135.655 93.2351 135.853 93.2611 136.04 93.2611C136.681 93.2611 137.001 92.911 137.001 92.2118V86.3591H137.41V92.1732C137.41 93.1502 136.956 93.6392 136.048 93.6392Z" fill="white"/>
<path d="M146.807 90.1207H144.446L143.632 92.1731H143.184L145.522 86.3359H145.781L148.072 92.1731H147.613L146.807 90.1207ZM144.593 89.7541H146.672L145.881 87.6592C145.814 87.4953 145.734 87.2677 145.642 86.9764C145.57 87.231 145.491 87.4615 145.407 87.667L144.593 89.7541Z" fill="white"/>
<path d="M158.303 89.2102C158.303 90.1853 158.047 90.9232 157.536 91.4247C157.023 91.9243 156.271 92.1732 155.279 92.1732H153.886V86.3591H155.46C156.386 86.3591 157.09 86.6022 157.574 87.0883C158.06 87.5725 158.303 88.2795 158.303 89.2102ZM157.86 89.2256C157.86 88.3952 157.647 87.7702 157.223 87.3506C156.801 86.9292 156.181 86.7179 155.363 86.7179H154.295V91.8144H155.255C156.992 91.8144 157.86 90.9521 157.86 89.2256Z" fill="white"/>
<path d="M169.517 89.2566C169.517 90.1806 169.285 90.9107 168.822 91.4479C168.361 91.9861 167.726 92.2543 166.916 92.2543C166.108 92.2543 165.473 91.9861 165.01 91.4479C164.549 90.9107 164.32 90.1777 164.32 89.2489C164.32 88.3258 164.552 87.5976 165.018 87.0652C165.483 86.5328 166.119 86.2666 166.924 86.2666C167.736 86.2666 168.372 86.5347 168.83 87.0691C169.287 87.6044 169.517 88.3335 169.517 89.2566ZM164.76 89.2566C164.76 90.0899 164.945 90.7342 165.315 91.1894C165.687 91.6447 166.222 91.8723 166.916 91.8723C167.616 91.8723 168.151 91.6476 168.521 91.1972C168.892 90.7448 169.077 90.0976 169.077 89.2566C169.077 88.4213 168.892 87.7789 168.521 87.3314C168.151 86.8839 167.618 86.6601 166.924 86.6601C166.231 86.6601 165.698 86.8868 165.323 87.3391C164.947 87.7896 164.76 88.429 164.76 89.2566Z" fill="white"/>
<path d="M179.054 90.6726C179.054 91.1587 178.875 91.5445 178.518 91.83C178.163 92.1135 177.689 92.2544 177.098 92.2544C176.388 92.2544 175.842 92.1753 175.462 92.019V91.6139C175.881 91.7914 176.416 91.8801 177.067 91.8801C177.543 91.8801 177.921 91.7711 178.202 91.5522C178.481 91.3342 178.622 91.0468 178.622 90.6919C178.622 90.471 178.576 90.2887 178.483 90.144C178.391 90.0003 178.238 89.8691 178.028 89.7505C177.82 89.6299 177.512 89.4997 177.106 89.3608C176.512 89.1583 176.101 88.9384 175.875 88.7011C175.649 88.4619 175.536 88.1456 175.536 87.752C175.536 87.318 175.705 86.9631 176.045 86.6872C176.386 86.4123 176.825 86.2744 177.361 86.2744C177.905 86.2744 178.419 86.3786 178.9 86.5869L178.753 86.9341C178.269 86.7335 177.808 86.6332 177.368 86.6332C176.938 86.6332 176.597 86.7335 176.342 86.9341C176.087 87.1328 175.96 87.4029 175.96 87.7443C175.96 87.9584 175.999 88.134 176.076 88.2729C176.155 88.4098 176.284 88.5333 176.462 88.6432C176.639 88.7542 176.944 88.8863 177.376 89.0406C177.828 89.1978 178.169 89.3493 178.398 89.4959C178.627 89.6425 178.793 89.8103 178.896 89.9974C179.001 90.1826 179.054 90.4083 179.054 90.6726Z" fill="white"/>
<path d="M23.7823 55.7354H28.0146L38.682 69.6281V55.7354H42.8526V77.2014H38.929L27.9837 62.8495V77.2014H23.7823V55.7354Z" fill="white"/>
<path d="M45.89 77.2014V55.7354H62.3869V59.6011H50.3345V64.5085H58.2781V68.2469H50.3345V73.3395H62.5104V77.2014H45.89Z" fill="white"/>
<path d="M73.088 77.2014H68.4275L63.6744 55.7354H68.2423L71.1551 70.3033L75.3565 55.7354H79.5271L83.6976 70.2415L86.6104 55.7354H91.024L86.2709 77.2014H81.6104L77.3473 62.2053L73.088 77.2014Z" fill="white"/>
</svg>
